<?xml version="1.0" encoding="utf-8"?>
<svg xmlns="http://www.w3.org/2000/svg" viewBox="10 5 65 65" fill="#fcc05e"><path d="M 40 5.007813 C 38.933594 5.007813 37.863281 5.410156 37.054688 6.21875 L 34.734375 8.539063 L 31.707031 7.28125 C 29.59375 6.40625 27.140625 7.421875 26.265625 9.539063 L 25.011719 12.566406 L 21.730469 12.566406 C 19.441406 12.566406 17.566406 14.441406 17.566406 16.730469 L 17.566406 20.011719 L 14.535156 21.265625 C 12.421875 22.140625 11.410156 24.59375 12.28125 26.707031 L 13.539063 29.738281 L 11.21875 32.058594 C 9.601563 33.675781 9.601563 36.328125 11.21875 37.945313 L 13.539063 40.265625 L 12.28125 43.292969 C 11.40625 45.40625 12.421875 47.859375 14.535156 48.734375 L 17.566406 49.988281 L 17.566406 50.019531 L 4.585938 63 L 17 63 L 17 75.414063 L 29.453125 62.964844 C 30.191406 63.085938 30.96875 63.023438 31.707031 62.71875 L 34.738281 61.460938 L 37.058594 63.78125 C 38.675781 65.398438 41.328125 65.398438 42.945313 63.78125 L 45.265625 61.460938 L 48.292969 62.71875 C 49.03125 63.023438 49.808594 63.085938 50.546875 62.964844 L 63 75.414063 L 63 63 L 75.414063 63 L 62.433594 50.019531 L 62.433594 49.988281 L 65.464844 48.734375 C 67.578125 47.859375 68.59375 45.40625 67.71875 43.292969 L 66.464844 40.265625 L 68.78125 37.945313 C 70.398438 36.328125 70.398438 33.671875 68.78125 32.054688 L 66.460938 29.734375 L 67.71875 26.707031 C 68.59375 24.59375 67.578125 22.140625 65.464844 21.265625 L 62.433594 20.011719 L 62.433594 16.730469 C 62.433594 14.441406 60.558594 12.566406 58.269531 12.566406 L 54.988281 12.566406 L 53.734375 9.539063 C 52.859375 7.421875 50.40625 6.410156 48.292969 7.28125 L 45.261719 8.539063 L 42.941406 6.21875 C 42.132813 5.410156 41.066406 5.007813 40 5.007813 Z M 40 6.992188 C 40.550781 6.992188 41.101563 7.207031 41.53125 7.632813 L 44.792969 10.898438 L 49.058594 9.132813 C 50.171875 8.667969 51.425781 9.1875 51.886719 10.300781 L 53.652344 14.566406 L 58.269531 14.566406 C 59.476563 14.566406 60.433594 15.523438 60.433594 16.730469 L 60.433594 21.34375 L 64.699219 23.113281 C 65.8125 23.574219 66.332031 24.824219 65.871094 25.941406 L 64.101563 30.203125 L 67.363281 33.46875 C 68.21875 34.324219 68.21875 35.675781 67.367188 36.53125 L 64.105469 39.796875 L 65.871094 44.058594 C 66.332031 45.175781 65.816406 46.425781 64.699219 46.886719 L 60.433594 48.65625 L 60.433594 53.269531 C 60.433594 54.476563 59.476563 55.433594 58.269531 55.433594 L 53.65625 55.433594 L 51.886719 59.699219 C 51.425781 60.8125 50.175781 61.332031 49.058594 60.871094 L 44.796875 59.101563 L 41.53125 62.363281 C 40.675781 63.21875 39.324219 63.21875 38.46875 62.363281 L 35.207031 59.101563 L 30.941406 60.871094 C 29.824219 61.328125 28.574219 60.8125 28.113281 59.699219 L 26.347656 55.433594 L 21.730469 55.433594 C 20.523438 55.433594 19.566406 54.476563 19.566406 53.269531 L 19.566406 48.65625 L 15.300781 46.886719 C 14.1875 46.425781 13.667969 45.175781 14.128906 44.058594 L 15.898438 39.796875 L 12.636719 36.53125 C 11.78125 35.675781 11.78125 34.324219 12.636719 33.46875 L 15.898438 30.207031 L 14.128906 25.941406 C 13.671875 24.824219 14.1875 23.574219 15.300781 23.113281 L 19.566406 21.34375 L 19.566406 16.730469 C 19.566406 15.523438 20.523438 14.566406 21.730469 14.566406 L 26.34375 14.566406 L 28.113281 10.300781 C 28.574219 9.1875 29.824219 8.667969 30.941406 9.132813 L 35.203125 10.898438 L 38.46875 7.632813 C 38.894531 7.207031 39.449219 6.992188 40 6.992188 Z M 40 10 C 39.449219 10 39 10.449219 39 11 C 39 11.550781 39.449219 12 40 12 C 40.550781 12 41 11.550781 41 11 C 41 10.449219 40.550781 10 40 10 Z M 30.824219 11.828125 C 30.6875 11.824219 30.554688 11.851563 30.433594 11.902344 C 29.921875 12.113281 29.679688 12.699219 29.890625 13.207031 C 30.101563 13.71875 30.6875 13.960938 31.199219 13.75 C 31.707031 13.539063 31.949219 12.953125 31.738281 12.441406 C 31.585938 12.074219 31.222656 11.828125 30.824219 11.828125 Z M 49.203125 11.828125 C 48.792969 11.816406 48.417969 12.0625 48.261719 12.441406 C 48.046875 12.953125 48.289063 13.539063 48.800781 13.75 C 49.3125 13.960938 49.894531 13.71875 50.109375 13.207031 C 50.320313 12.699219 50.078125 12.113281 49.566406 11.902344 C 49.453125 11.855469 49.328125 11.828125 49.203125 11.828125 Z M 40 17 C 39.449219 17 39 17.449219 39 18 C 39 18.550781 39.449219 19 40 19 C 40.550781 19 41 18.550781 41 18 C 41 17.449219 40.550781 17 40 17 Z M 56.984375 17.03125 C 56.714844 17.027344 56.453125 17.132813 56.265625 17.324219 C 55.875 17.710938 55.875 18.347656 56.265625 18.734375 C 56.652344 19.125 57.289063 19.125 57.675781 18.734375 C 58.066406 18.347656 58.066406 17.710938 57.675781 17.324219 C 57.492188 17.136719 57.246094 17.03125 56.984375 17.03125 Z M 23.042969 17.03125 C 22.773438 17.027344 22.511719 17.132813 22.324219 17.324219 C 21.933594 17.714844 21.933594 18.347656 22.324219 18.738281 C 22.710938 19.128906 23.347656 19.128906 23.734375 18.738281 C 24.125 18.347656 24.125 17.714844 23.734375 17.324219 C 23.550781 17.140625 23.304688 17.035156 23.042969 17.03125 Z M 35.609375 17.578125 C 35.585938 17.578125 35.5625 17.582031 35.539063 17.582031 C 35.472656 17.585938 35.40625 17.597656 35.34375 17.613281 C 34.808594 17.757813 34.492188 18.304688 34.636719 18.839844 C 34.777344 19.375 35.324219 19.691406 35.859375 19.546875 C 36.394531 19.402344 36.710938 18.855469 36.566406 18.324219 C 36.449219 17.886719 36.058594 17.585938 35.609375 17.578125 Z M 44.390625 17.578125 C 43.941406 17.582031 43.550781 17.886719 43.433594 18.320313 C 43.363281 18.578125 43.398438 18.851563 43.53125 19.082031 C 43.664063 19.308594 43.882813 19.476563 44.140625 19.546875 C 44.398438 19.617188 44.671875 19.578125 44.898438 19.445313 C 45.128906 19.3125 45.296875 19.09375 45.363281 18.839844 C 45.507813 18.304688 45.191406 17.757813 44.65625 17.613281 C 44.570313 17.589844 44.480469 17.578125 44.390625 17.578125 Z M 31.476563 19.277344 C 31.308594 19.28125 31.144531 19.328125 31 19.410156 C 30.769531 19.542969 30.601563 19.761719 30.53125 20.019531 C 30.464844 20.273438 30.5 20.546875 30.632813 20.777344 C 30.765625 21.007813 30.984375 21.175781 31.242188 21.242188 C 31.496094 21.3125 31.769531 21.277344 32 21.140625 C 32.476563 20.867188 32.640625 20.253906 32.363281 19.777344 C 32.183594 19.460938 31.84375 19.269531 31.476563 19.277344 Z M 48.453125 19.28125 C 48.109375 19.296875 47.800781 19.484375 47.632813 19.78125 C 47.355469 20.257813 47.523438 20.867188 48 21.144531 C 48.476563 21.421875 49.089844 21.257813 49.363281 20.78125 C 49.5 20.550781 49.535156 20.277344 49.464844 20.019531 C 49.398438 19.761719 49.230469 19.542969 49 19.410156 C 48.832031 19.316406 48.644531 19.269531 48.453125 19.28125 Z M 27.992188 21.980469 C 27.722656 21.976563 27.460938 22.082031 27.269531 22.269531 C 26.882813 22.660156 26.882813 23.296875 27.269531 23.6875 C 27.660156 24.074219 28.296875 24.074219 28.6875 23.6875 C 29.074219 23.296875 29.074219 22.660156 28.6875 22.269531 C 28.5 22.085938 28.253906 21.980469 27.992188 21.980469 Z M 52.035156 21.980469 C 51.765625 21.972656 51.503906 22.078125 51.3125 22.269531 C 50.921875 22.660156 50.921875 23.296875 51.3125 23.6875 C 51.703125 24.074219 52.335938 24.074219 52.726563 23.6875 C 53.117188 23.296875 53.117188 22.660156 52.726563 22.269531 C 52.542969 22.085938 52.296875 21.984375 52.035156 21.980469 Z M 17.847656 24.8125 C 17.4375 24.804688 17.0625 25.050781 16.90625 25.433594 C 16.691406 25.941406 16.933594 26.527344 17.445313 26.738281 C 17.957031 26.949219 18.539063 26.707031 18.75 26.199219 C 18.964844 25.6875 18.722656 25.101563 18.210938 24.890625 C 18.097656 24.84375 17.972656 24.816406 17.847656 24.8125 Z M 62.179688 24.8125 C 62.046875 24.8125 61.914063 24.839844 61.792969 24.890625 C 61.28125 25.101563 61.039063 25.6875 61.25 26.199219 C 61.460938 26.707031 62.046875 26.949219 62.558594 26.738281 C 63.066406 26.527344 63.308594 25.941406 63.097656 25.433594 C 62.945313 25.058594 62.582031 24.816406 62.179688 24.8125 Z M 54.699219 25.5 C 54.53125 25.503906 54.367188 25.550781 54.21875 25.632813 C 53.992188 25.765625 53.824219 25.984375 53.753906 26.242188 C 53.6875 26.496094 53.722656 26.769531 53.855469 27 C 54.132813 27.476563 54.742188 27.640625 55.21875 27.363281 C 55.699219 27.089844 55.863281 26.476563 55.585938 26 C 55.402344 25.683594 55.0625 25.492188 54.699219 25.5 Z M 25.230469 25.5 C 24.886719 25.519531 24.578125 25.707031 24.410156 26 C 24.132813 26.480469 24.300781 27.089844 24.777344 27.367188 C 25.253906 27.644531 25.867188 27.480469 26.140625 27 C 26.277344 26.773438 26.3125 26.5 26.242188 26.242188 C 26.175781 25.984375 26.007813 25.765625 25.777344 25.636719 C 25.609375 25.539063 25.421875 25.492188 25.230469 25.5 Z M 23.570313 29.601563 C 23.121094 29.605469 22.730469 29.910156 22.613281 30.34375 C 22.46875 30.878906 22.785156 31.425781 23.320313 31.566406 C 23.855469 31.710938 24.402344 31.394531 24.546875 30.859375 C 24.6875 30.328125 24.371094 29.78125 23.839844 29.636719 C 23.75 29.613281 23.660156 29.601563 23.570313 29.601563 Z M 56.457031 29.601563 C 56.355469 29.597656 56.257813 29.609375 56.160156 29.636719 C 55.625 29.777344 55.308594 30.324219 55.453125 30.859375 C 55.597656 31.394531 56.144531 31.710938 56.675781 31.566406 C 57.210938 31.421875 57.527344 30.875 57.386719 30.34375 C 57.269531 29.917969 56.894531 29.617188 56.457031 29.601563 Z M 16 34 C 15.449219 34 15 34.449219 15 35 C 15 35.550781 15.449219 36 16 36 C 16.550781 36 17 35.550781 17 35 C 17 34.449219 16.550781 34 16 34 Z M 23 34 C 22.449219 34 22 34.449219 22 35 C 22 35.550781 22.449219 36 23 36 C 23.550781 36 24 35.550781 24 35 C 24 34.449219 23.550781 34 23 34 Z M 57 34 C 56.449219 34 56 34.449219 56 35 C 56 35.550781 56.449219 36 57 36 C 57.550781 36 58 35.550781 58 35 C 58 34.449219 57.550781 34 57 34 Z M 64 34 C 63.449219 34 63 34.449219 63 35 C 63 35.550781 63.449219 36 64 36 C 64.550781 36 65 35.550781 65 35 C 65 34.449219 64.550781 34 64 34 Z M 23.617188 38.402344 C 23.515625 38.398438 23.417969 38.40625 23.320313 38.433594 C 22.785156 38.578125 22.46875 39.125 22.613281 39.65625 C 22.679688 39.914063 22.847656 40.132813 23.078125 40.265625 C 23.308594 40.398438 23.582031 40.4375 23.839844 40.367188 C 24.09375 40.296875 24.3125 40.128906 24.445313 39.902344 C 24.578125 39.671875 24.613281 39.398438 24.546875 39.140625 C 24.429688 38.71875 24.054688 38.417969 23.617188 38.402344 Z M 56.410156 38.402344 C 55.960938 38.40625 55.570313 38.710938 55.453125 39.144531 C 55.3125 39.679688 55.628906 40.226563 56.160156 40.371094 C 56.695313 40.511719 57.242188 40.195313 57.386719 39.660156 C 57.53125 39.128906 57.214844 38.582031 56.679688 38.4375 C 56.59375 38.414063 56.503906 38.402344 56.410156 38.402344 Z M 25.253906 42.5 C 25.085938 42.503906 24.921875 42.550781 24.777344 42.632813 C 24.300781 42.910156 24.132813 43.519531 24.410156 44 C 24.542969 44.226563 24.761719 44.394531 25.019531 44.464844 C 25.273438 44.535156 25.546875 44.5 25.777344 44.363281 C 26.007813 44.234375 26.175781 44.015625 26.242188 43.757813 C 26.3125 43.5 26.277344 43.226563 26.140625 43 C 25.960938 42.683594 25.617188 42.492188 25.253906 42.5 Z M 54.671875 42.503906 C 54.335938 42.519531 54.027344 42.707031 53.855469 43 C 53.578125 43.480469 53.742188 44.089844 54.21875 44.367188 C 54.699219 44.644531 55.308594 44.480469 55.585938 44 C 55.863281 43.523438 55.699219 42.914063 55.21875 42.636719 C 55.054688 42.539063 54.863281 42.496094 54.671875 42.503906 Z M 17.835938 43.183594 C 17.703125 43.183594 17.570313 43.207031 17.445313 43.261719 C 16.933594 43.472656 16.691406 44.054688 16.90625 44.566406 C 17.117188 45.078125 17.699219 45.320313 18.210938 45.109375 C 18.71875 44.894531 18.960938 44.3125 18.75 43.800781 C 18.597656 43.429688 18.238281 43.1875 17.835938 43.183594 Z M 62.195313 43.183594 C 61.78125 43.175781 61.40625 43.417969 61.25 43.800781 C 61.039063 44.3125 61.28125 44.894531 61.792969 45.109375 C 62.300781 45.320313 62.886719 45.078125 63.097656 44.566406 C 63.308594 44.054688 63.066406 43.472656 62.558594 43.261719 C 62.441406 43.210938 62.320313 43.1875 62.195313 43.183594 Z M 27.992188 46.019531 C 27.722656 46.019531 27.460938 46.125 27.269531 46.3125 C 26.882813 46.703125 26.882813 47.339844 27.269531 47.730469 C 27.660156 48.117188 28.296875 48.117188 28.6875 47.730469 C 28.875 47.539063 28.980469 47.285156 28.980469 47.019531 C 28.980469 46.753906 28.875 46.5 28.6875 46.3125 C 28.5 46.128906 28.253906 46.023438 27.992188 46.019531 Z M 52.035156 46.019531 C 51.765625 46.015625 51.503906 46.121094 51.3125 46.3125 C 50.921875 46.703125 50.921875 47.339844 51.3125 47.730469 C 51.703125 48.117188 52.335938 48.117188 52.726563 47.730469 C 52.914063 47.539063 53.019531 47.285156 53.019531 47.019531 C 53.019531 46.753906 52.914063 46.5 52.726563 46.3125 C 52.542969 46.128906 52.292969 46.023438 52.035156 46.019531 Z M 48.472656 48.722656 C 48.308594 48.726563 48.144531 48.773438 48 48.855469 C 47.523438 49.132813 47.355469 49.742188 47.632813 50.21875 C 47.765625 50.449219 47.984375 50.617188 48.242188 50.6875 C 48.496094 50.757813 48.769531 50.722656 49 50.589844 C 49.230469 50.457031 49.398438 50.238281 49.464844 49.980469 C 49.535156 49.722656 49.5 49.449219 49.363281 49.21875 C 49.183594 48.90625 48.839844 48.714844 48.472656 48.722656 Z M 31.453125 48.722656 C 31.113281 48.742188 30.804688 48.929688 30.632813 49.222656 C 30.5 49.453125 30.464844 49.726563 30.53125 49.980469 C 30.601563 50.238281 30.769531 50.457031 31 50.589844 C 31.476563 50.867188 32.089844 50.699219 32.363281 50.222656 C 32.640625 49.746094 32.476563 49.132813 32 48.859375 C 31.832031 48.761719 31.644531 48.714844 31.453125 48.722656 Z M 35.589844 50.421875 C 35.140625 50.425781 34.75 50.726563 34.632813 51.160156 C 34.488281 51.695313 34.804688 52.242188 35.339844 52.386719 C 35.875 52.53125 36.421875 52.214844 36.5625 51.679688 C 36.707031 51.144531 36.390625 50.597656 35.859375 50.453125 C 35.769531 50.433594 35.679688 50.421875 35.589844 50.421875 Z M 44.4375 50.421875 C 44.335938 50.417969 44.238281 50.429688 44.140625 50.453125 C 43.882813 50.523438 43.664063 50.691406 43.53125 50.921875 C 43.398438 51.152344 43.363281 51.425781 43.433594 51.683594 C 43.578125 52.214844 44.125 52.53125 44.65625 52.390625 C 44.914063 52.320313 45.132813 52.152344 45.265625 51.921875 C 45.398438 51.691406 45.433594 51.417969 45.363281 51.160156 C 45.25 50.738281 44.875 50.4375 44.4375 50.421875 Z M 23.042969 50.96875 C 22.773438 50.96875 22.511719 51.074219 22.324219 51.265625 C 21.933594 51.652344 21.933594 52.289063 22.324219 52.675781 C 22.710938 53.066406 23.347656 53.066406 23.734375 52.675781 C 24.125 52.289063 24.125 51.652344 23.734375 51.265625 C 23.550781 51.078125 23.304688 50.972656 23.042969 50.96875 Z M 56.984375 50.96875 C 56.714844 50.964844 56.453125 51.070313 56.261719 51.265625 C 55.871094 51.652344 55.871094 52.289063 56.261719 52.675781 C 56.652344 53.066406 57.285156 53.066406 57.675781 52.675781 C 58.066406 52.289063 58.066406 51.652344 57.675781 51.265625 C 57.492188 51.078125 57.246094 50.976563 56.984375 50.96875 Z M 40 51 C 39.449219 51 39 51.449219 39 52 C 39 52.550781 39.449219 53 40 53 C 40.550781 53 41 52.550781 41 52 C 41 51.449219 40.550781 51 40 51 Z M 17.566406 52.847656 L 17.566406 53.269531 C 17.566406 55.558594 19.441406 57.433594 21.730469 57.433594 L 25.011719 57.433594 L 26.265625 60.464844 C 26.539063 61.125 26.976563 61.664063 27.5 62.082031 L 19 70.585938 L 19 61 L 9.414063 61 Z M 62.433594 52.847656 L 70.585938 61 L 61 61 L 61 70.585938 L 52.5 62.082031 C 53.023438 61.660156 53.460938 61.125 53.734375 60.464844 L 54.988281 57.433594 L 58.269531 57.433594 C 60.558594 57.433594 62.433594 55.558594 62.433594 53.269531 Z M 30.839844 56.171875 C 30.425781 56.164063 30.050781 56.40625 29.890625 56.789063 C 29.679688 57.300781 29.921875 57.882813 30.433594 58.09375 C 30.945313 58.308594 31.527344 58.066406 31.738281 57.554688 C 31.953125 57.042969 31.710938 56.460938 31.199219 56.25 C 31.085938 56.199219 30.960938 56.175781 30.839844 56.171875 Z M 49.191406 56.171875 C 49.058594 56.171875 48.925781 56.195313 48.800781 56.25 C 48.558594 56.347656 48.363281 56.542969 48.261719 56.789063 C 48.160156 57.035156 48.160156 57.308594 48.261719 57.554688 C 48.472656 58.066406 49.054688 58.308594 49.566406 58.09375 C 49.8125 57.996094 50.007813 57.800781 50.109375 57.554688 C 50.210938 57.308594 50.210938 57.035156 50.109375 56.789063 C 49.957031 56.417969 49.59375 56.175781 49.191406 56.171875 Z M 40 58 C 39.449219 58 39 58.449219 39 59 C 39 59.550781 39.449219 60 40 60 C 40.550781 60 41 59.550781 41 59 C 41 58.449219 40.550781 58 40 58 Z" fill="#fcc05e"/></svg>
