<?xml version="1.0" encoding="utf-8"?>
<svg xmlns="http://www.w3.org/2000/svg" viewBox="0 0 50 50" fill="#fcc05e"><path d="M38.399,7H11.601C7.961,7,5,9.969,5,13.622l0.061,17.737c0,3.662,2.928,6.641,6.526,6.641h3.46l0.012,7.002 c0.001,0.417,0.26,0.789,0.65,0.935C15.823,45.979,15.941,46,16.059,46c0.283,0,0.56-0.121,0.754-0.343l6.678-7.66l15.001-0.073 c3.71,0,6.508-2.748,6.508-6.391V13.618C45,9.969,42.039,7,38.399,7z M23,21.035c0.037,1.447-0.626,4.735-3.397,6.824 c-0.18,0.136-0.392,0.202-0.601,0.202c-0.303,0-0.603-0.137-0.799-0.398c-0.333-0.441-0.245-1.068,0.196-1.4 c0.883-0.666,1.471-1.488,1.867-2.293c-0.247,0.056-0.502,0.091-0.765,0.091c-1.93,0-3.5-1.583-3.5-3.53S17.57,17,19.5,17 s3.5,1.583,3.5,3.53L23,21.035z M33.999,21.035c0.037,1.447-0.626,4.735-3.397,6.824c-0.18,0.136-0.392,0.202-0.601,0.202 c-0.303,0-0.603-0.137-0.799-0.398c-0.333-0.441-0.245-1.068,0.196-1.4c0.883-0.666,1.471-1.488,1.867-2.293 c-0.247,0.056-0.502,0.091-0.765,0.091c-1.93,0-3.5-1.583-3.5-3.53s1.57-3.53,3.5-3.53s3.5,1.583,3.5,3.53L33.999,21.035z" fill="#fcc05e"/></svg>
