<?xml version="1.0" encoding="utf-8"?>
<svg xmlns="http://www.w3.org/2000/svg" viewBox="0 0 64 64" fill="#fcc05e"><path d="M 31.921875 0.078125 C 29.695313 0.078125 27.898438 1.816406 27.828125 4.039063 L 27.78125 5.609375 C 26.949219 4.671875 25.734375 4.078125 24.378906 4.078125 C 21.894531 4.078125 19.902344 6.023438 19.84375 8.507813 L 19.171875 37.960938 L 11.863281 31.699219 C 10.4375 30.476563 8.511719 30.0625 6.707031 30.59375 C 4.90625 31.121094 3.507813 32.511719 2.976563 34.28125 C 2.890625 34.539063 2.914063 34.820313 3.039063 35.0625 L 10.652344 49.71875 C 11.601563 51.546875 12.738281 53.285156 14.035156 54.890625 L 18.746094 60.730469 C 20.460938 62.855469 23.015625 64 25.75 64 L 43.015625 64 C 46.992188 64 50.449219 61.523438 51.617188 57.722656 L 52.835938 53.761719 C 53.5625 51.398438 53.867188 48.949219 53.734375 46.480469 L 52.101563 15.421875 C 51.972656 12.984375 49.960938 11.074219 47.515625 11.074219 C 46.175781 11.074219 44.972656 11.648438 44.136719 12.5625 L 44.019531 8.5 C 43.949219 6.019531 41.953125 4.078125 39.472656 4.078125 C 38.117188 4.078125 36.898438 4.671875 36.0625 5.617188 L 36.015625 4.039063 C 35.945313 1.816406 34.152344 0.078125 31.921875 0.078125 Z M 31.925781 2.078125 C 33.0625 2.078125 33.984375 2.964844 34.015625 4.101563 L 34.824219 30.109375 C 34.839844 30.648438 35.285156 31.078125 35.824219 31.078125 L 35.921875 31.078125 C 36.476563 31.078125 36.921875 30.628906 36.921875 30.078125 L 36.921875 8.625 C 36.921875 7.21875 38.066406 6.078125 39.472656 6.078125 C 40.863281 6.078125 41.984375 7.164063 42.019531 8.554688 L 42.625 30.105469 C 42.640625 30.644531 43.082031 31.078125 43.625 31.078125 L 43.925781 31.078125 C 44.476563 31.078125 44.925781 30.628906 44.925781 30.078125 L 44.925781 15.667969 C 44.925781 14.238281 46.085938 13.078125 47.519531 13.078125 C 48.898438 13.078125 50.035156 14.15625 50.105469 15.53125 L 51.738281 46.589844 C 51.855469 48.820313 51.582031 51.035156 50.925781 53.171875 L 49.703125 57.136719 C 48.796875 60.089844 46.109375 62.078125 43.015625 62.078125 L 25.75 62.078125 C 23.621094 62.078125 21.636719 61.128906 20.300781 59.472656 L 15.59375 53.636719 C 14.378906 52.132813 13.316406 50.507813 12.425781 48.796875 L 5.011719 34.523438 C 5.421875 33.539063 6.226563 32.816406 7.273438 32.511719 C 8.441406 32.167969 9.636719 32.425781 10.5625 33.21875 L 19.109375 40.542969 L 19.046875 43.433594 C 19.035156 43.984375 19.472656 44.441406 20.023438 44.453125 C 20.5625 44.46875 21.03125 44.027344 21.046875 43.476563 L 21.839844 8.554688 C 21.875 7.164063 22.988281 6.078125 24.386719 6.078125 C 25.785156 6.078125 26.921875 7.21875 26.921875 8.617188 L 26.921875 30.078125 C 26.921875 30.628906 27.46875 31.078125 28.023438 31.078125 C 28.5625 31.078125 29.007813 30.648438 29.023438 30.109375 L 29.828125 4.101563 C 29.863281 2.964844 30.78125 2.078125 31.925781 2.078125 Z M 28 37 C 27.449219 37 27 37.445313 27 38 L 27 40 C 27 40.554688 27.449219 41 28 41 C 28.550781 41 29 40.554688 29 40 L 29 38 C 29 37.445313 28.550781 37 28 37 Z M 33 37 C 32.449219 37 32 37.445313 32 38 L 32 40 C 32 40.554688 32.449219 41 33 41 C 33.550781 41 34 40.554688 34 40 L 34 38 C 34 37.445313 33.550781 37 33 37 Z M 38 37 C 37.449219 37 37 37.445313 37 38 L 37 40 C 37 40.554688 37.449219 41 38 41 C 38.550781 41 39 40.554688 39 40 L 39 38 C 39 37.445313 38.550781 37 38 37 Z M 43 37 C 42.449219 37 42 37.445313 42 38 L 42 40 C 42 40.554688 42.449219 41 43 41 C 43.550781 41 44 40.554688 44 40 L 44 38 C 44 37.445313 43.550781 37 43 37 Z" fill="#fcc05e"/></svg>
