<?xml version="1.0" encoding="utf-8"?>
<svg xmlns="http://www.w3.org/2000/svg" viewBox="0 0 50 50" fill="#fcc05e"><path d="M 2.59375 1 C 1.171875 1 0 2.171875 0 3.59375 L 0 34.40625 C 0 35.828125 1.171875 37 2.59375 37 L 27.5 37 L 25.5 35 L 2.59375 35 C 2.253906 35 2 34.746094 2 34.40625 L 2 3.59375 C 2 3.253906 2.253906 3 2.59375 3 L 47.40625 3 C 47.746094 3 48 3.253906 48 3.59375 L 48 34.40625 C 48 34.746094 47.746094 35 47.40625 35 L 41.5 35 L 43.5 37 L 47.40625 37 C 48.828125 37 50 35.828125 50 34.40625 L 50 3.59375 C 50 2.171875 48.828125 1 47.40625 1 Z M 5 5 L 5 13 L 9 13 L 9 5 Z M 12 5 L 12 33 L 23.5 33 L 21.5 31 L 14 31 L 14 7 L 44 7 L 44 31 L 37.5 31 L 39.5 33 L 46 33 L 46 5 Z M 7 15 C 4.800781 15 3 16.800781 3 19 C 3 21.199219 4.800781 23 7 23 C 9.199219 23 11 21.199219 11 19 C 11 16.800781 9.199219 15 7 15 Z M 7 17 C 8.117188 17 9 17.882813 9 19 C 9 20.117188 8.117188 21 7 21 C 5.882813 21 5 20.117188 5 19 C 5 17.882813 5.882813 17 7 17 Z M 7 18 C 6.449219 18 6 18.449219 6 19 C 6 19.550781 6.449219 20 7 20 C 7.550781 20 8 19.550781 8 19 C 8 18.449219 7.550781 18 7 18 Z M 21.65625 22 C 21.484375 22 21.316406 22.054688 21.1875 22.1875 C 20.925781 22.449219 20.925781 22.894531 21.1875 23.15625 C 21.226563 23.195313 21.523438 23.492188 21.8125 23.78125 L 21.6875 23.90625 C 21.398438 24.191406 21.3125 24.625 21.46875 25 L 24.09375 31.46875 C 24.214844 31.746094 24.457031 31.953125 24.75 32.03125 C 24.753906 32.03125 24.777344 32.0625 24.78125 32.0625 C 24.800781 32.0625 24.824219 32.0625 24.84375 32.0625 C 24.886719 32.074219 24.9375 32.105469 25 32.125 C 25.152344 32.171875 25.363281 32.21875 25.59375 32.3125 C 26.058594 32.5 26.601563 32.820313 26.84375 33.0625 L 40.75 46.9375 C 41.066406 47.253906 41.5625 47.457031 42 47.4375 C 42.183594 47.429688 42.351563 47.394531 42.5 47.34375 L 43.34375 48.1875 C 44.402344 49.246094 46.128906 49.246094 47.1875 48.1875 C 48.246094 47.128906 48.246094 45.402344 47.1875 44.34375 L 46.34375 43.5 C 46.394531 43.351563 46.429688 43.183594 46.4375 43 C 46.457031 42.5625 46.253906 42.035156 45.9375 41.71875 L 32.0625 27.84375 C 31.53125 27.3125 31.0625 25.78125 31.0625 25.78125 C 31.019531 25.617188 30.933594 25.464844 30.8125 25.34375 C 30.792969 25.320313 30.773438 25.300781 30.75 25.28125 C 30.667969 25.203125 30.574219 25.140625 30.46875 25.09375 L 24 22.46875 C 23.84375 22.394531 23.671875 22.363281 23.5 22.375 C 23.273438 22.40625 23.0625 22.519531 22.90625 22.6875 L 22.78125 22.8125 L 22.15625 22.1875 C 22.023438 22.054688 21.828125 22 21.65625 22 Z M 23.84375 24.5625 L 28.3125 26.375 L 25.375 29.3125 L 23.5625 24.84375 Z M 5 25 L 5 33 L 9 33 L 9 25 Z M 29.71875 27.78125 C 29.953125 28.273438 30.171875 28.796875 30.625 29.25 L 44.375 43 C 44.367188 43.019531 44.390625 43.003906 44.375 43.03125 C 44.339844 43.070313 44.308594 43.113281 44.28125 43.15625 C 44.085938 43.417969 43.707031 43.792969 43.25 44.25 C 42.878906 44.621094 42.566406 44.90625 42.3125 45.125 C 42.1875 45.164063 42.070313 45.226563 41.96875 45.3125 L 28.25 31.625 C 27.789063 31.164063 27.277344 30.941406 26.78125 30.71875 Z M 32 32.125 C 31.75 32.101563 31.519531 32.167969 31.34375 32.34375 C 30.996094 32.691406 31.050781 33.300781 31.46875 33.71875 C 31.609375 33.859375 33.609375 35.859375 33.75 36 C 34.167969 36.417969 34.777344 36.472656 35.125 36.125 C 35.476563 35.777344 35.417969 35.167969 35 34.75 L 32.71875 32.46875 C 32.507813 32.257813 32.25 32.148438 32 32.125 Z M 45.1875 45.15625 L 45.78125 45.75 C 46.074219 46.042969 46.074219 46.488281 45.78125 46.78125 C 45.488281 47.074219 45.042969 47.074219 44.75 46.78125 L 44.15625 46.1875 C 44.332031 46.023438 44.507813 45.867188 44.6875 45.6875 C 44.867188 45.507813 45.023438 45.332031 45.1875 45.15625 Z" fill="#fcc05e"/></svg>
