<?xml version="1.0" encoding="utf-8"?>
<svg xmlns="http://www.w3.org/2000/svg" viewBox="0 0 50 50" fill="#fcc05e"><path d="M 4 4 C 2.9069372 4 2 4.9069372 2 6 L 2 35 C 2 36.093063 2.9069372 37 4 37 L 19 37 L 19 40 L 16 40 C 14.35503 40 13 41.35503 13 43 L 13 45 A 1.0001 1.0001 0 0 0 14 46 L 36 46 A 1.0001 1.0001 0 0 0 37 45 L 37 43 C 37 41.35503 35.64497 40 34 40 L 31 40 L 31 37 L 46 37 C 47.093063 37 48 36.093063 48 35 L 48 6 C 48 4.9069372 47.093063 4 46 4 L 4 4 z M 4 6 L 46 6 L 46 29 L 4 29 L 4 6 z M 27.949219 8.9882812 A 1.0001 1.0001 0 0 0 27.064453 9.6484375 L 21.064453 25.648438 A 1.0001 1.0001 0 1 0 22.935547 26.351562 L 28.935547 10.351562 A 1.0001 1.0001 0 0 0 27.949219 8.9882812 z M 32.001953 11.988281 A 1.0001 1.0001 0 0 0 31.21875 13.625 L 34.71875 18 L 31.21875 22.375 A 1.0004882 1.0004882 0 1 0 32.78125 23.625 L 36.78125 18.625 A 1.0001 1.0001 0 0 0 36.78125 17.375 L 32.78125 12.375 A 1.0001 1.0001 0 0 0 32.001953 11.988281 z M 17.96875 11.990234 A 1.0001 1.0001 0 0 0 17.21875 12.375 L 13.21875 17.375 A 1.0001 1.0001 0 0 0 13.21875 18.625 L 17.21875 23.625 A 1.0004882 1.0004882 0 1 0 18.78125 22.375 L 15.28125 18 L 18.78125 13.625 A 1.0001 1.0001 0 0 0 17.96875 11.990234 z M 4 31 L 46 31 L 46 35 L 30 35 L 20 35 L 4 35 L 4 31 z M 42 32 A 1 1 0 0 0 41 33 A 1 1 0 0 0 42 34 A 1 1 0 0 0 43 33 A 1 1 0 0 0 42 32 z M 21 37 L 29 37 L 29 40 L 21 40 L 21 37 z M 16 42 L 34 42 C 34.56503 42 35 42.43497 35 43 L 35 44 L 15 44 L 15 43 C 15 42.43497 15.43497 42 16 42 z" fill="#fcc05e"/></svg>
